<svg width="10.938" height="10.937" fill="none">
  <path d="M9.338 1.6a5.476 5.476 0 0 0-7.736 0A5.438 5.438 0 0 0 0 5.469C0 6.93.569 8.304 1.602 9.338a5.452 5.452 0 0 0 3.868 1.6c1.4 0 2.802-.534 3.868-1.6a5.479 5.479 0 0 0 0-7.738zM8.74 8.738a4.627 4.627 0 0 1-6.538 0 4.594 4.594 0 0 1-1.354-3.27c0-1.234.481-2.395 1.354-3.269a4.628 4.628 0 0 1 6.538 0 4.63 4.63 0 0 1 0 6.54z" fill="#fff"/>
  <path d="M7.174 6.605 6.037 5.47l1.137-1.137a.401.401 0 1 0-.568-.569L5.47 4.902 4.33 3.764a.401.401 0 1 0-.567.568L4.9 5.47 3.764 6.605a.402.402 0 0 0 .567.57L5.47 6.036l1.137 1.137a.4.4 0 0 0 .568 0 .402.402 0 0 0 0-.569z" fill="#fff"/>
</svg>