<svg width="110mm" height="60mm" viewBox="0 0 110 60" xmlns="http://www.w3.org/2000/svg"><path style="fill-opacity:.994282;stroke-width:1.5;stroke-linecap:square;stroke-linejoin:round" d="M0 0h110v60H0Z"/><g style="font-size:11.9062px;line-height:1.25;stroke-width:.264583"><path style="font-weight:700;font-family:Montserrat;-inkscape-font-specification:'Montserrat Bold';text-align:end;text-anchor:end;fill:#fff" d="M94.466 34.781h1.786L93.36 41.58q-.44 1.107-1.095 1.56-.643.452-1.56.452-.5 0-.988-.155t-.798-.429l.679-1.321q.214.19.488.297.286.108.56.108.38 0 .619-.191.238-.179.428-.607l.024-.06-2.774-6.453h1.917l1.798 4.346zm-8.144-2.429h1.858v8.835h-1.774v-.739c-.46.556-1.127.834-2 .834a3.36 3.36 0 0 1-1.643-.405 2.91 2.91 0 0 1-1.143-1.155c-.278-.5-.417-1.08-.417-1.738 0-.659.127-1.218.417-1.738a2.99 2.99 0 0 1 1.143-1.155 3.36 3.36 0 0 1 1.643-.405c.817 0 1.456.258 1.916.774zm-1.595 7.406c.468 0 .857-.159 1.167-.476.31-.326.464-.758.464-1.298s-.155-.968-.464-1.286a1.543 1.543 0 0 0-1.167-.488c-.476 0-.87.163-1.179.488-.31.318-.464.746-.464 1.286s.155.972.464 1.298c.31.317.703.476 1.18.476zm-6.644-7.406h1.858v8.835h-1.774v-.739q-.69.834-2 .834-.905 0-1.644-.405-.726-.405-1.143-1.155-.416-.75-.416-1.738t.416-1.738q.417-.75 1.143-1.155.739-.405 1.644-.405 1.226 0 1.916.774zm-1.595 7.406q.702 0 1.167-.476.464-.488.464-1.298t-.464-1.286q-.465-.488-1.167-.488-.714 0-1.179.488-.464.476-.464 1.286t.464 1.298q.465.476 1.179.476zm-6.656-4.977h1.858v6.406h-1.762v-.762q-.37.416-.881.643-.512.214-1.108.214-1.262 0-2-.726-.738-.727-.738-2.155v-3.62h1.857v3.346q0 1.548 1.298 1.548.667 0 1.072-.43.404-.44.404-1.297zm-7.453 2.072q.715.226 1.12.762.404.524.404 1.298 0 1.095-.857 1.69-.845.584-2.477.584h-4.31v-8.335h4.072q1.524 0 2.334.584.821.583.821 1.583 0 .607-.297 1.084-.286.476-.81.75zm-4.203-2.548v1.964h1.917q.715 0 1.084-.25.369-.25.369-.738t-.37-.726q-.368-.25-1.083-.25zm2.25 5.43q.763 0 1.144-.25.392-.251.392-.775 0-1.036-1.535-1.036h-2.25v2.06zm34.04-19.946h1.786l-2.893 6.798q-.44 1.107-1.095 1.56-.643.452-1.56.452-.5 0-.988-.155-.488-.154-.798-.428l.679-1.322q.214.19.488.298.286.107.56.107.38 0 .619-.19.238-.18.428-.608l.024-.06-2.774-6.452h1.917l1.798 4.345zm-8.144-2.43h1.858v8.835h-1.774v-.738q-.69.833-2 .833-.905 0-1.643-.404-.727-.405-1.143-1.155-.417-.75-.417-1.739 0-.988.417-1.738.416-.75 1.143-1.155.738-.405 1.643-.405 1.226 0 1.916.774zm-1.595 7.406q.703 0 1.167-.476.464-.488.464-1.298t-.464-1.285q-.464-.489-1.167-.489-.714 0-1.179.489-.464.476-.464 1.285 0 .81.464 1.298.465.476 1.18.476zm-6.655-4.976h1.857v6.405h-1.762v-.762q-.37.417-.881.643-.512.214-1.108.214-1.262 0-2-.726t-.738-2.155v-3.62h1.857v3.346q0 1.548 1.298 1.548.667 0 1.072-.429.405-.44.405-1.297zm-5.644 6.096q-.274.202-.679.31-.393.094-.833.094-1.143 0-1.774-.583-.62-.583-.62-1.714V21.36h-.987v-1.429h.988v-1.56h1.857v1.56h1.596v1.43H70.38v2.607q0 .404.203.63.214.215.595.215.44 0 .75-.238zm-8.858.452q-.988 0-1.917-.262-.917-.274-1.476-.702l.654-1.453q.536.393 1.274.631.739.238 1.477.238.821 0 1.214-.238.393-.25.393-.655 0-.297-.238-.488-.226-.202-.595-.321-.358-.12-.977-.262-.952-.227-1.56-.453-.607-.226-1.047-.726-.429-.5-.429-1.334 0-.726.393-1.31.393-.595 1.179-.94.798-.345 1.94-.345.798 0 1.56.19t1.334.548l-.596 1.465q-1.154-.655-2.31-.655-.809 0-1.202.262-.38.262-.38.69 0 .429.44.643.452.203 1.369.405.952.226 1.56.452.607.227 1.035.715.44.488.44 1.321 0 .715-.404 1.31-.393.583-1.19.929-.798.345-1.941.345z" aria-label="Study Buddy"/></g></svg>